<svg fill="#000" width="800" height="800" viewBox="144 144 512 512" xmlns="http://www.w3.org/2000/svg"><g fill-rule="evenodd"><path d="m358.02 295.04h209.92c11.586.0 20.992-9.4062 20.992-20.992s-9.4062-20.992-20.992-20.992H358.02c-11.586.0-20.992 9.4062-20.992 20.992s9.4062 20.992 20.992 20.992z"/><path d="m358.02 546.94h209.92c11.586.0 20.992-9.4062 20.992-20.992.0-11.586-9.4062-20.992-20.992-20.992H358.02c-11.586.0-20.992 9.4062-20.992 20.992.0 11.586 9.4062 20.992 20.992 20.992z"/><path d="m221.59 260.74-.019532 97.277c0 11.586 9.4062 20.992 20.992 20.992 11.586.0 20.992-9.4062 20.992-20.992l.042969-146.95c0-8.4805-5.1016-16.145-12.953-19.398s-16.879-1.4492-22.883 4.5547l-31.488 31.488c-8.207 8.1875-8.207 21.496-.019531 29.684 6.8633 6.8633 17.32 7.9766 25.336 3.3359z"/><path d="m274.05 337.02h-62.934c-11.586.0-20.992 9.4062-20.992 20.992s9.4062 20.992 20.992 20.992h62.934c11.586.0 20.992-9.4062 20.992-20.992s-9.4062-20.992-20.992-20.992z"/><path d="m226.81 468.37c3.7383-3.3594 8.6484-5.3945 14.043-5.3945 11.586.0 20.992 9.4062 20.992 20.992s-9.4062 20.992-20.992 20.992c-11.586.0-20.992 9.4062-20.992 20.992s9.4062 20.992 20.992 20.992c34.762.0 62.977-28.215 62.977-62.977s-28.215-62.977-62.977-62.977c-16.207.0-30.984 6.1289-42.133 16.184-8.6055 7.7461-9.3008 21.035-1.5547 29.641 7.7656 8.6055 21.035 9.3008 29.641 1.5547z"/><path d="m232.06 568.02v-16.395l16.961-5.6875-6.4219 1.0078-6.9258-40.809s-9.4688 3.168-16.961 5.6875c-17.109 5.75-28.633 21.77-28.633 39.801v16.395c0 11.148 4.4297 21.812 12.301 29.684 7.8711 7.8711 18.559 12.301 29.684 12.301h52.48c11.586.0 20.992-9.4062 20.992-20.992.0-11.586-9.4062-20.992-20.992-20.992z"/></g></svg>