<svg fill="#000" width="800" height="800" viewBox="144 144 512 512" xmlns="http://www.w3.org/2000/svg"><path d="m317.48 280.64c-11.141.0-20.309 9.1719-20.309 20.309v243.88c0 11.145 9.1719 20.309 20.309 20.309h175.23c11.141.0 20.309-9.1641 20.309-20.309v-188.61h.003906c-.011719-.37109-.066406-.74219-.15625-1.1016v-.15625c-.050782-.10547-.10156-.21094-.15625-.3125v-.15625c-.050782-.10547-.10156-.21094-.15625-.3125-.050782-.050781-.10547-.10547-.15625-.15625v-.15625c-.050782-.050781-.10547-.10547-.15625-.15625-.050782-.10547-.10156-.20703-.15625-.3125-.050782-.050781-.10547-.10547-.15625-.15625-.050782-.10547-.10156-.20703-.15625-.3125-.050782-.050781-.10547-.10547-.15625-.15625-.050782-.050781-.10547-.10156-.15625-.15625l-73.523-70.535v.003906c-.37109-.37891-.79297-.69922-1.2617-.94531-.15625-.058593-.3125-.10937-.47266-.15625-.15625-.058593-.3125-.10937-.47266-.15625-.15625-.058593-.3125-.10937-.47656-.15625-.26172-.019531-.52344-.019531-.78516.0h-116.98zm0 10.078h111.94v50.223c0 11.141 9.1719 20.309 20.309 20.309h53.215v183.57c0 5.7031-4.543 10.234-10.234 10.234H317.48c-5.6875.0-10.234-4.5312-10.234-10.234V300.94c0-5.6875 4.5469-10.234 10.234-10.234zm122.02 6.7695 52.27 50.066 3.7773 3.6211h-45.816c-5.6914.0-10.234-4.5391-10.234-10.234v-43.453z"/></svg>