<svg width="800" height="800" viewBox="0 0 24 24" fill="none" xmlns="http://www.w3.org/2000/svg"><path fill-rule="evenodd" clip-rule="evenodd" d="M6.25 7c0 .69036-.55964 1.25-1.25 1.25S3.75 7.69036 3.75 7 4.30964 5.75 5 5.75 6.25 6.30964 6.25 7zM9 6C8.44771 6 8 6.44772 8 7S8.44771 8 9 8H19C19.5523 8 20 7.55228 20 7S19.5523 6 19 6H9zm0 5C8.44771 11 8 11.4477 8 12S8.44771 13 9 13H19C19.5523 13 20 12.5523 20 12S19.5523 11 19 11H9zm0 5C8.44771 16 8 16.4477 8 17S8.44771 18 9 18H19C19.5523 18 20 17.5523 20 17S19.5523 16 19 16H9zM5 13.25c.69036.0 1.25-.5596 1.25-1.25S5.69036 10.75 5 10.75 3.75 11.3096 3.75 12 4.30964 13.25 5 13.25zm0 5c.69036.0 1.25-.5596 1.25-1.25S5.69036 15.75 5 15.75 3.75 16.3096 3.75 17 4.30964 18.25 5 18.25z" fill="#000"/></svg>