<svg fill="#000" width="800" height="800" viewBox="0 0 32 32" xmlns="http://www.w3.org/2000/svg"><title>image</title><path d="M30 3.25H2c-.414.0-.75.336-.75.75v0 24c0 .022.011.041.013.063.012.103.04.198.082.284l-.002-.005c.05.087.11.162.181.225l.001.001c.017.015.027.035.046.048.015.01.033.006.048.015.107.071.238.115.378.119h.001l.002.001h28.001c.414.0.75-.336.75-.75v0-24c0-.414-.336-.75-.75-.75v0zm-.75 1.5v14.771l-6.625-9.937c-.144-.191-.37-.313-.625-.313s-.481.122-.624.311l-.001.002-7.545 11.318-4.361-3.488c-.127-.102-.29-.164-.468-.164-.253.0-.477.126-.613.318l-.002.002-5.636 8.051V4.75zM3.44 27.25l5.716-8.164 4.375 3.5c.121.104.28.167.454.167.046.0.091-.004.135-.013l-.004.001c.214-.033.394-.153.507-.322l.002-.003 7.376-11.063 7.25 10.876v5.021zM8 12.75c1.519.0 2.75-1.231 2.75-2.75S9.519 7.25 8 7.25 5.25 8.481 5.25 10v0c.002 1.518 1.232 2.748 2.75 2.75h0zm0-4c.69.0 1.25.56 1.25 1.25S8.69 11.25 8 11.25 6.75 10.69 6.75 10v0c.001-.69.56-1.249 1.25-1.25h0z"/></svg>