<svg width="800" height="800" viewBox="0 0 24 24" xmlns="http://www.w3.org/2000/svg"><title>ic_fluent_text_indent_decrease_24_regular</title><desc>Created with Sketch.</desc><g id="ðŸ”-Product-Icons" stroke="none" stroke-width="1" fill="none" fill-rule="evenodd"><g id="ic_fluent_text_indent_decrease_24_regular" fill="#212121" fill-rule="nonzero"><path d="M17.75 16c.4142136.0.75.3357864.75.75s-.3357864.75-.75.75h-9c-.41421356.0-.75-.3357864-.75-.75s.33578644-.75.75-.75h9zM2.71966991 11.2196699l2-1.99999999C5.01256313 8.9267767 5.48743687 8.9267767 5.78033009 9.21966991 6.04659665 9.48593648 6.0708027 9.90260016 5.85294824 10.1962117L5.78033009 10.2803301 4.31066017 11.75l1.46966992 1.4696699C6.0732233 13.5125631 6.0732233 13.9874369 5.78033009 14.2803301 5.51406352 14.5465966 5.09739984 14.5708027 4.80378835 14.3529482L4.71966991 14.2803301l-2-2C2.45340335 12.0140635 2.4291973 11.5973998 2.64705176 11.3037883L2.71966991 11.2196699l2-1.99999999-2 1.99999999zM20.75 11c.4142136.0.75.3357864.75.75s-.3357864.75-.75.75h-12c-.41421356.0-.75-.3357864-.75-.75s.33578644-.75.75-.75h12zm-3-5c.4142136.0.75.33578644.75.75s-.3357864.75-.75.75h-9C8.33578644 7.5 8 7.16421356 8 6.75S8.33578644 6 8.75 6h9z" id="ðŸŽ¨-Color"/></g></g></svg>