<svg fill="#000" width="800" height="800" viewBox="144 144 512 512" xmlns="http://www.w3.org/2000/svg"><path d="m528.47 233.74c-15.656.03125-31.418 3.8945-45.973 12.121l-82.184 46.445c-2.3359 1.3164-4.0586 3.5078-4.7812 6.0898-.72266 2.582-.39062 5.3477.92578 7.6875 1.3125 2.3398 3.5039 4.0586 6.0898 4.7812 2.582.72266 5.3477.39062 7.6836-.92578l82.188-46.445c35.035-19.805 79.203-8.1875 99.344 25.98 20.141 34.168 8.4258 77.016-26.609 96.824l-87.379 49.277c-35.031 19.812-79.203 8.1914-99.344-25.977-1.2656-2.4766-3.4961-4.3203-6.168-5.0938-2.668-.77734-5.5391-.41406-7.9336 1-2.3945 1.4141-4.0977 3.7578-4.707 6.4688-.60938 2.7148-.070313 5.5586 1.4883 7.8594 25.691 43.582 82.234 58.457 126.58 33.379l87.383-49.438c44.348-25.078 59.695-80.953 34.004-124.54-16.055-27.238-44.168-43.297-73.84-45.344-2.2227-.15234-4.5312-.16016-6.7695-.15625zM358.28 334.5c-15.66.03125-31.422 3.8906-45.973 12.121l-87.379 49.438c-44.348 25.078-59.699 80.953-34.008 124.54 25.688 43.582 82.23 58.449 126.58 33.379l82.184-46.445c2.3398-1.3164 4.0586-3.5078 4.7812-6.0898.72266-2.582.39062-5.3477-.92188-7.6875-1.3164-2.3398-3.5078-4.0586-6.0898-4.7812-2.5859-.72266-5.3516-.39062-7.6875.92578l-82.184 46.445c-35.039 19.805-79.207 8.1875-99.348-25.98s-8.4219-76.855 26.609-96.668l87.379-49.438c35.031-19.809 79.203-8.1875 99.344 25.98 1.2656 2.4766 3.4961 4.3203 6.168 5.0938 2.668.77734 5.543.41406 7.9336-1 2.3945-1.4141 4.0977-3.7578 4.707-6.4688.60938-2.7148.070312-5.5586-1.4883-7.8594-16.055-27.238-44.168-43.297-73.84-45.344-2.2266-.15234-4.5352-.16016-6.7695-.15625z"/></svg>